<svg width="283" height="92" viewBox="0 0 283 92" fill="none" xmlns="http://www.w3.org/2000/svg">
<g clip-path="url(#clip0_1_2)">
<path fill-rule="evenodd" clip-rule="evenodd" d="M266.56 84.3L257.89 73.3H255.18V91H258.52V79L267.83 91H269.9V73.31H266.56V84.3ZM234.15 76C238.32 76 239.99 79.34 239.94 82.33C239.89 85.32 238.32 88.33 234.15 88.33C229.98 88.33 228.41 85.22 228.34 82.33C228.27 79.44 230 76 234.15 76ZM234.15 73C228.03 73 225.05 77.68 225.05 82.33C225.05 86.98 227.93 91.46 234.15 91.46C240.37 91.46 243.15 86.88 243.23 82.3C243.31 77.72 240.25 73 234.15 73ZM212.92 91V73.31H209.6V91H212.92ZM189.36 91H192.7V76.34H198.31V73.34H183.74V76.34H189.36V91ZM170.45 84.56H163.87L167.16 77L170.45 84.56ZM173.28 91H176.92L169 73.31H165.36L157.4 91H161L162.51 87.67H171.77L173.28 91ZM135.28 76.44H138.92C142.77 76.44 144.38 79.2 144.46 81.96C144.54 84.72 142.94 87.79 138.92 87.79H135.28V76.44ZM138.92 73.28H132V91H138.95C145.15 91 147.88 86.48 147.8 82C147.72 77.52 145 73.31 138.92 73.31V73.28ZM116.55 84.28L107.88 73.28H105.17V91H108.51V79L117.81 91H119.89V73.31H116.55V84.28ZM89.09 73.34V83.5C89.09 86.5 87.53 88.38 84.77 88.38C82.01 88.38 80.19 86.69 80.19 83.5V73.36H76.88V83.5C76.88 88.83 80.5 91.41 84.74 91.41C89.19 91.41 92.41 88.73 92.41 83.5V73.36L89.09 73.34ZM56.09 75.99C60.26 75.99 61.93 79.33 61.88 82.32C61.83 85.31 60.26 88.32 56.09 88.32C51.92 88.32 50.35 85.21 50.27 82.32C50.19 79.43 51.93 76 56.1 76L56.09 75.99ZM56.09 72.99C49.97 72.99 46.99 77.67 46.99 82.32C46.99 86.97 49.87 91.45 56.09 91.45C62.31 91.45 65.09 86.87 65.17 82.29C65.25 77.71 62.19 73 56.1 73L56.09 72.99ZM26.32 91V84.46H35.19V81.4H26.32V76.57H35.7V73.36H23V91H26.32Z" fill="#F79422"/>
<path fill-rule="evenodd" clip-rule="evenodd" d="M270.23 54.75H248.06V45.84H269.44V38.9H248.06V29.76H270.23V22.54H240.67V62.08H270.23V54.75ZM230.23 29.09C227.23 22.99 220.87 21.25 214.72 21.25C207.44 21.25 199.43 24.63 199.43 32.75C199.43 41.61 206.88 43.75 214.94 44.75C220.19 45.31 224.08 46.84 224.08 50.56C224.08 54.85 219.68 56.48 215 56.48C210.32 56.48 205.64 54.56 203.89 50.22L197.68 53.44C200.62 60.66 206.82 63.14 214.89 63.14C223.69 63.14 231.47 59.36 231.47 50.56C231.47 41.14 223.8 39 215.56 37.98C210.83 37.42 206.77 36.46 206.77 32.98C206.77 30.05 209.42 27.73 214.94 27.73C219.23 27.73 222.94 29.88 224.31 32.13L230.23 29.09ZM176.89 22.54C170.68 22.49 164.48 22.54 158.27 22.54V62.08H165.72V50.46H176.89C196.25 50.46 196.2 22.54 176.91 22.54H176.89ZM165.72 29.65H176.89C186.36 29.65 186.42 43.65 176.89 43.65H165.74L165.72 29.65ZM147.72 62.08V22.54H140.33V62.08H147.72ZM103.72 22.54V62.08H131.47V55.2H111.22V22.54H103.72ZM91.55 52C88.8722 54.5462 85.325 55.9765 81.63 56C71.87 56 68.09 49.18 68.03 42.63C67.97 36.08 72.09 28.93 81.63 28.93C85.1705 28.8782 88.5909 30.2133 91.16 32.65L96.16 27.86C92.3256 24.0044 87.1076 21.8438 81.67 21.86C67.4 21.86 60.67 32.35 60.74 42.67C60.81 52.99 67 63 81.63 63C87.2149 63.1339 92.6194 61.019 96.63 57.13L91.55 52ZM52.55 54.76H30.37V45.84H51.75V38.9H30.37V29.76H52.54V22.54H23V62.08H52.56L52.55 54.76Z" fill="white"/>
<path fill-rule="evenodd" clip-rule="evenodd" d="M10.66 18.52C19.66 4.41999 37.81 -0.48001 52.91 6.26999L51.91 5.57999C36.493 -4.30591 15.9809 0.17796 6.09501 15.595C-3.79089 31.012 0.692975 51.5241 16.11 61.41L17.16 62.04C4.69001 51.14 1.61 32.63 10.66 18.52Z" fill="#F79422"/>
<path fill-rule="evenodd" clip-rule="evenodd" d="M273 26.41C273 23.8805 275.051 21.83 277.58 21.83C280.109 21.83 282.16 23.8805 282.16 26.41C282.16 28.9394 280.109 30.99 277.58 30.99C275.051 30.99 273 28.9394 273 26.41ZM281.63 26.41C281.63 24.1732 279.817 22.36 277.58 22.36C275.343 22.36 273.53 24.1732 273.53 26.41C273.508 27.4934 273.927 28.5392 274.69 29.3083C275.454 30.0773 276.496 30.5037 277.58 30.49C278.67 30.4954 279.716 30.0635 280.485 29.2909C281.254 28.5184 281.681 27.4698 281.67 26.38L281.63 26.41ZM275.69 23.94H278C279.11 23.94 279.92 24.44 279.92 25.52C279.952 26.2088 279.497 26.826 278.83 27L280 28.67H278.61L277.61 27.17H276.87V28.67H275.72L275.69 23.94ZM277.84 26.25C278.37 26.25 278.66 25.99 278.66 25.6C278.66 25.21 278.34 24.94 277.84 24.94H276.84V26.25H277.84Z" fill="white"/>
</g>
<defs>
<clipPath id="clip0_1_2">
<rect width="283" height="92" fill="white"/>
</clipPath>
</defs>
</svg>
